<mxfile host="app.diagrams.net" modified="2023-05-22T14:51:17.711Z" agent="Mozilla/5.0 (Windows NT 10.0; Win64; x64) AppleWebKit/537.36 (KHTML, like Gecko) Chrome/113.0.0.0 Safari/537.36" etag="Tib97oFKQ6UWzDf2ECh8" version="21.3.2" type="github">
  <diagram name="PÃ¡gina-1" id="nlaHgDk7MtEOHKfIky3o">
    <mxGraphModel dx="1120" dy="452" grid="1" gridSize="10" guides="1" tooltips="1" connect="1" arrows="1" fold="1" page="1" pageScale="1" pageWidth="827" pageHeight="1169" math="0" shadow="0">
      <root>
        <mxCell id="0" />
        <mxCell id="1" parent="0" />
        <mxCell id="aP_Akgzm--8WJA6tpNV4-22" value="" style="edgeStyle=orthogonalEdgeStyle;rounded=0;orthogonalLoop=1;jettySize=auto;html=1;endArrow=none;endFill=0;" parent="1" source="aP_Akgzm--8WJA6tpNV4-1" target="aP_Akgzm--8WJA6tpNV4-9" edge="1">
          <mxGeometry relative="1" as="geometry" />
        </mxCell>
        <mxCell id="aP_Akgzm--8WJA6tpNV4-23" style="edgeStyle=orthogonalEdgeStyle;rounded=0;orthogonalLoop=1;jettySize=auto;html=1;exitX=0.7;exitY=0.033;exitDx=0;exitDy=0;entryX=0.333;entryY=0.95;entryDx=0;entryDy=0;entryPerimeter=0;exitPerimeter=0;endArrow=none;endFill=0;" parent="1" source="aP_Akgzm--8WJA6tpNV4-1" target="aP_Akgzm--8WJA6tpNV4-4" edge="1">
          <mxGeometry relative="1" as="geometry" />
        </mxCell>
        <mxCell id="aP_Akgzm--8WJA6tpNV4-24" style="edgeStyle=orthogonalEdgeStyle;rounded=0;orthogonalLoop=1;jettySize=auto;html=1;exitX=1;exitY=0.25;exitDx=0;exitDy=0;entryX=0.2;entryY=1.025;entryDx=0;entryDy=0;entryPerimeter=0;endArrow=none;endFill=0;" parent="1" source="aP_Akgzm--8WJA6tpNV4-1" target="aP_Akgzm--8WJA6tpNV4-5" edge="1">
          <mxGeometry relative="1" as="geometry" />
        </mxCell>
        <mxCell id="aP_Akgzm--8WJA6tpNV4-25" style="edgeStyle=orthogonalEdgeStyle;rounded=0;orthogonalLoop=1;jettySize=auto;html=1;exitX=0.5;exitY=0;exitDx=0;exitDy=0;entryX=0.5;entryY=1;entryDx=0;entryDy=0;endArrow=none;endFill=0;" parent="1" source="aP_Akgzm--8WJA6tpNV4-1" target="aP_Akgzm--8WJA6tpNV4-3" edge="1">
          <mxGeometry relative="1" as="geometry" />
        </mxCell>
        <mxCell id="aP_Akgzm--8WJA6tpNV4-64" style="edgeStyle=orthogonalEdgeStyle;rounded=0;orthogonalLoop=1;jettySize=auto;html=1;exitX=0.5;exitY=1;exitDx=0;exitDy=0;entryX=0.96;entryY=0.233;entryDx=0;entryDy=0;entryPerimeter=0;endArrow=none;endFill=0;" parent="1" source="aP_Akgzm--8WJA6tpNV4-1" target="aP_Akgzm--8WJA6tpNV4-63" edge="1">
          <mxGeometry relative="1" as="geometry">
            <Array as="points">
              <mxPoint x="150" y="180" />
              <mxPoint x="150" y="200" />
              <mxPoint x="116" y="200" />
            </Array>
          </mxGeometry>
        </mxCell>
        <mxCell id="aP_Akgzm--8WJA6tpNV4-1" value="CLIENTES" style="rounded=0;whiteSpace=wrap;html=1;" parent="1" vertex="1">
          <mxGeometry x="130" y="120" width="120" height="60" as="geometry" />
        </mxCell>
        <mxCell id="aP_Akgzm--8WJA6tpNV4-2" value="ID_CLIENTE" style="ellipse;whiteSpace=wrap;html=1;fontStyle=4" parent="1" vertex="1">
          <mxGeometry x="20" y="50" width="90" height="40" as="geometry" />
        </mxCell>
        <mxCell id="aP_Akgzm--8WJA6tpNV4-3" value="NOMBRE" style="ellipse;whiteSpace=wrap;html=1;fontStyle=0" parent="1" vertex="1">
          <mxGeometry x="110" y="30" width="90" height="40" as="geometry" />
        </mxCell>
        <mxCell id="aP_Akgzm--8WJA6tpNV4-4" value="APELLIDO" style="ellipse;whiteSpace=wrap;html=1;fontStyle=0" parent="1" vertex="1">
          <mxGeometry x="210" y="30" width="90" height="40" as="geometry" />
        </mxCell>
        <mxCell id="aP_Akgzm--8WJA6tpNV4-5" value="DNI" style="ellipse;whiteSpace=wrap;html=1;fontStyle=0" parent="1" vertex="1">
          <mxGeometry x="290" y="60" width="90" height="40" as="geometry" />
        </mxCell>
        <mxCell id="aP_Akgzm--8WJA6tpNV4-8" value="DIRECCION" style="ellipse;whiteSpace=wrap;html=1;fontStyle=0" parent="1" vertex="1">
          <mxGeometry x="151.25" y="220" width="90" height="40" as="geometry" />
        </mxCell>
        <mxCell id="aP_Akgzm--8WJA6tpNV4-21" value="" style="edgeStyle=orthogonalEdgeStyle;rounded=0;orthogonalLoop=1;jettySize=auto;html=1;endArrow=none;endFill=0;" parent="1" source="aP_Akgzm--8WJA6tpNV4-9" target="aP_Akgzm--8WJA6tpNV4-10" edge="1">
          <mxGeometry relative="1" as="geometry" />
        </mxCell>
        <mxCell id="aP_Akgzm--8WJA6tpNV4-9" value="REALIZAN" style="rhombus;whiteSpace=wrap;html=1;" parent="1" vertex="1">
          <mxGeometry x="350" y="130" width="140" height="40" as="geometry" />
        </mxCell>
        <mxCell id="aP_Akgzm--8WJA6tpNV4-19" value="" style="edgeStyle=orthogonalEdgeStyle;rounded=0;orthogonalLoop=1;jettySize=auto;html=1;endArrow=none;endFill=0;" parent="1" source="aP_Akgzm--8WJA6tpNV4-10" target="aP_Akgzm--8WJA6tpNV4-11" edge="1">
          <mxGeometry relative="1" as="geometry" />
        </mxCell>
        <mxCell id="aP_Akgzm--8WJA6tpNV4-35" style="edgeStyle=orthogonalEdgeStyle;rounded=0;orthogonalLoop=1;jettySize=auto;html=1;exitX=0.5;exitY=0;exitDx=0;exitDy=0;entryX=1;entryY=1;entryDx=0;entryDy=0;endArrow=none;endFill=0;" parent="1" source="aP_Akgzm--8WJA6tpNV4-10" target="aP_Akgzm--8WJA6tpNV4-29" edge="1">
          <mxGeometry relative="1" as="geometry" />
        </mxCell>
        <mxCell id="aP_Akgzm--8WJA6tpNV4-36" style="edgeStyle=orthogonalEdgeStyle;rounded=0;orthogonalLoop=1;jettySize=auto;html=1;exitX=0.5;exitY=0;exitDx=0;exitDy=0;entryX=0.5;entryY=1;entryDx=0;entryDy=0;endArrow=none;endFill=0;" parent="1" source="aP_Akgzm--8WJA6tpNV4-10" target="aP_Akgzm--8WJA6tpNV4-31" edge="1">
          <mxGeometry relative="1" as="geometry" />
        </mxCell>
        <mxCell id="aP_Akgzm--8WJA6tpNV4-37" style="edgeStyle=orthogonalEdgeStyle;rounded=0;orthogonalLoop=1;jettySize=auto;html=1;exitX=0.5;exitY=0;exitDx=0;exitDy=0;entryX=0;entryY=1;entryDx=0;entryDy=0;endArrow=none;endFill=0;" parent="1" source="aP_Akgzm--8WJA6tpNV4-10" target="aP_Akgzm--8WJA6tpNV4-32" edge="1">
          <mxGeometry relative="1" as="geometry" />
        </mxCell>
        <mxCell id="aP_Akgzm--8WJA6tpNV4-38" style="edgeStyle=orthogonalEdgeStyle;rounded=0;orthogonalLoop=1;jettySize=auto;html=1;exitX=1;exitY=0.25;exitDx=0;exitDy=0;entryX=0.411;entryY=1.025;entryDx=0;entryDy=0;entryPerimeter=0;endArrow=none;endFill=0;" parent="1" source="aP_Akgzm--8WJA6tpNV4-10" target="aP_Akgzm--8WJA6tpNV4-34" edge="1">
          <mxGeometry relative="1" as="geometry" />
        </mxCell>
        <mxCell id="aP_Akgzm--8WJA6tpNV4-10" value="COMPRAS" style="rounded=0;whiteSpace=wrap;html=1;" parent="1" vertex="1">
          <mxGeometry x="590" y="120" width="120" height="60" as="geometry" />
        </mxCell>
        <mxCell id="aP_Akgzm--8WJA6tpNV4-20" value="" style="edgeStyle=orthogonalEdgeStyle;rounded=0;orthogonalLoop=1;jettySize=auto;html=1;endArrow=none;endFill=0;" parent="1" source="aP_Akgzm--8WJA6tpNV4-11" target="aP_Akgzm--8WJA6tpNV4-12" edge="1">
          <mxGeometry relative="1" as="geometry" />
        </mxCell>
        <mxCell id="aP_Akgzm--8WJA6tpNV4-42" style="edgeStyle=orthogonalEdgeStyle;rounded=0;orthogonalLoop=1;jettySize=auto;html=1;exitX=0;exitY=0;exitDx=0;exitDy=0;entryX=1;entryY=0.5;entryDx=0;entryDy=0;endArrow=none;endFill=0;" parent="1" source="aP_Akgzm--8WJA6tpNV4-11" target="aP_Akgzm--8WJA6tpNV4-39" edge="1">
          <mxGeometry relative="1" as="geometry">
            <Array as="points">
              <mxPoint x="580" y="260" />
              <mxPoint x="580" y="250" />
            </Array>
          </mxGeometry>
        </mxCell>
        <mxCell id="aP_Akgzm--8WJA6tpNV4-43" style="edgeStyle=orthogonalEdgeStyle;rounded=0;orthogonalLoop=1;jettySize=auto;html=1;exitX=0;exitY=1;exitDx=0;exitDy=0;entryX=1;entryY=0.5;entryDx=0;entryDy=0;endArrow=none;endFill=0;" parent="1" source="aP_Akgzm--8WJA6tpNV4-11" target="aP_Akgzm--8WJA6tpNV4-41" edge="1">
          <mxGeometry relative="1" as="geometry">
            <Array as="points">
              <mxPoint x="580" y="280" />
              <mxPoint x="580" y="300" />
            </Array>
          </mxGeometry>
        </mxCell>
        <mxCell id="aP_Akgzm--8WJA6tpNV4-11" value="TIENEN" style="rhombus;whiteSpace=wrap;html=1;" parent="1" vertex="1">
          <mxGeometry x="580" y="250" width="140" height="40" as="geometry" />
        </mxCell>
        <mxCell id="aP_Akgzm--8WJA6tpNV4-16" value="" style="edgeStyle=orthogonalEdgeStyle;rounded=0;orthogonalLoop=1;jettySize=auto;html=1;endArrow=none;endFill=0;" parent="1" source="aP_Akgzm--8WJA6tpNV4-12" edge="1">
          <mxGeometry relative="1" as="geometry">
            <mxPoint x="410" y="410" as="targetPoint" />
          </mxGeometry>
        </mxCell>
        <mxCell id="aP_Akgzm--8WJA6tpNV4-53" style="edgeStyle=orthogonalEdgeStyle;rounded=0;orthogonalLoop=1;jettySize=auto;html=1;exitX=0.25;exitY=1;exitDx=0;exitDy=0;entryX=0.5;entryY=0;entryDx=0;entryDy=0;endArrow=none;endFill=0;" parent="1" source="aP_Akgzm--8WJA6tpNV4-12" target="aP_Akgzm--8WJA6tpNV4-52" edge="1">
          <mxGeometry relative="1" as="geometry" />
        </mxCell>
        <mxCell id="aP_Akgzm--8WJA6tpNV4-55" style="edgeStyle=orthogonalEdgeStyle;rounded=0;orthogonalLoop=1;jettySize=auto;html=1;exitX=0.25;exitY=1;exitDx=0;exitDy=0;entryX=0.5;entryY=0;entryDx=0;entryDy=0;endArrow=none;endFill=0;" parent="1" source="aP_Akgzm--8WJA6tpNV4-12" target="aP_Akgzm--8WJA6tpNV4-54" edge="1">
          <mxGeometry relative="1" as="geometry">
            <Array as="points">
              <mxPoint x="550" y="440" />
              <mxPoint x="550" y="460" />
              <mxPoint x="595" y="460" />
            </Array>
          </mxGeometry>
        </mxCell>
        <mxCell id="aP_Akgzm--8WJA6tpNV4-57" style="edgeStyle=orthogonalEdgeStyle;rounded=0;orthogonalLoop=1;jettySize=auto;html=1;exitX=0.75;exitY=1;exitDx=0;exitDy=0;entryX=0;entryY=0;entryDx=0;entryDy=0;endArrow=none;endFill=0;" parent="1" source="aP_Akgzm--8WJA6tpNV4-12" target="aP_Akgzm--8WJA6tpNV4-56" edge="1">
          <mxGeometry relative="1" as="geometry" />
        </mxCell>
        <mxCell id="aP_Akgzm--8WJA6tpNV4-61" style="edgeStyle=orthogonalEdgeStyle;rounded=0;orthogonalLoop=1;jettySize=auto;html=1;exitX=1;exitY=0.25;exitDx=0;exitDy=0;entryX=0;entryY=0.5;entryDx=0;entryDy=0;endArrow=none;endFill=0;" parent="1" source="aP_Akgzm--8WJA6tpNV4-12" target="aP_Akgzm--8WJA6tpNV4-60" edge="1">
          <mxGeometry relative="1" as="geometry" />
        </mxCell>
        <mxCell id="aP_Akgzm--8WJA6tpNV4-62" style="edgeStyle=orthogonalEdgeStyle;rounded=0;orthogonalLoop=1;jettySize=auto;html=1;exitX=1;exitY=0.5;exitDx=0;exitDy=0;entryX=0;entryY=0.5;entryDx=0;entryDy=0;endArrow=none;endFill=0;" parent="1" source="aP_Akgzm--8WJA6tpNV4-12" target="aP_Akgzm--8WJA6tpNV4-58" edge="1">
          <mxGeometry relative="1" as="geometry" />
        </mxCell>
        <mxCell id="RYfMj_dOxorMY7eD4tFU-1" style="edgeStyle=orthogonalEdgeStyle;rounded=0;orthogonalLoop=1;jettySize=auto;html=1;exitX=0.75;exitY=0;exitDx=0;exitDy=0;entryX=0;entryY=0.675;entryDx=0;entryDy=0;entryPerimeter=0;" edge="1" parent="1" source="aP_Akgzm--8WJA6tpNV4-12" target="aP_Akgzm--8WJA6tpNV4-49">
          <mxGeometry relative="1" as="geometry" />
        </mxCell>
        <mxCell id="aP_Akgzm--8WJA6tpNV4-12" value="DISCOS" style="rounded=0;whiteSpace=wrap;html=1;" parent="1" vertex="1">
          <mxGeometry x="510" y="380" width="120" height="60" as="geometry" />
        </mxCell>
        <mxCell id="aP_Akgzm--8WJA6tpNV4-17" value="" style="edgeStyle=orthogonalEdgeStyle;rounded=0;orthogonalLoop=1;jettySize=auto;html=1;endArrow=none;endFill=0;startArrow=none;startFill=0;" parent="1" source="aP_Akgzm--8WJA6tpNV4-13" target="aP_Akgzm--8WJA6tpNV4-14" edge="1">
          <mxGeometry relative="1" as="geometry" />
        </mxCell>
        <mxCell id="aP_Akgzm--8WJA6tpNV4-13" value="PERTENECEN&amp;nbsp;&lt;br&gt;A" style="rhombus;whiteSpace=wrap;html=1;" parent="1" vertex="1">
          <mxGeometry x="270" y="375" width="140" height="70" as="geometry" />
        </mxCell>
        <mxCell id="aP_Akgzm--8WJA6tpNV4-46" style="edgeStyle=orthogonalEdgeStyle;rounded=0;orthogonalLoop=1;jettySize=auto;html=1;exitX=0.5;exitY=0;exitDx=0;exitDy=0;entryX=1;entryY=1;entryDx=0;entryDy=0;endArrow=none;endFill=0;" parent="1" source="aP_Akgzm--8WJA6tpNV4-14" target="aP_Akgzm--8WJA6tpNV4-44" edge="1">
          <mxGeometry relative="1" as="geometry" />
        </mxCell>
        <mxCell id="aP_Akgzm--8WJA6tpNV4-47" style="edgeStyle=orthogonalEdgeStyle;rounded=0;orthogonalLoop=1;jettySize=auto;html=1;exitX=0.75;exitY=0;exitDx=0;exitDy=0;entryX=0;entryY=1;entryDx=0;entryDy=0;endArrow=none;endFill=0;" parent="1" source="aP_Akgzm--8WJA6tpNV4-14" target="aP_Akgzm--8WJA6tpNV4-45" edge="1">
          <mxGeometry relative="1" as="geometry" />
        </mxCell>
        <mxCell id="aP_Akgzm--8WJA6tpNV4-14" value="GENEROS" style="rounded=0;whiteSpace=wrap;html=1;" parent="1" vertex="1">
          <mxGeometry x="50" y="380" width="120" height="60" as="geometry" />
        </mxCell>
        <mxCell id="aP_Akgzm--8WJA6tpNV4-29" value="ID_COMPRA" style="ellipse;whiteSpace=wrap;html=1;fontStyle=4" parent="1" vertex="1">
          <mxGeometry x="510" y="50" width="90" height="40" as="geometry" />
        </mxCell>
        <mxCell id="aP_Akgzm--8WJA6tpNV4-31" value="ID_CLIENTE" style="ellipse;whiteSpace=wrap;html=1;fontStyle=0" parent="1" vertex="1">
          <mxGeometry x="590" y="20" width="90" height="40" as="geometry" />
        </mxCell>
        <mxCell id="aP_Akgzm--8WJA6tpNV4-32" value="FECHA" style="ellipse;whiteSpace=wrap;html=1;fontStyle=0" parent="1" vertex="1">
          <mxGeometry x="690" y="20" width="90" height="40" as="geometry" />
        </mxCell>
        <mxCell id="aP_Akgzm--8WJA6tpNV4-34" value="FORMA_PAGO" style="ellipse;whiteSpace=wrap;html=1;fontStyle=0" parent="1" vertex="1">
          <mxGeometry x="720" y="70" width="90" height="40" as="geometry" />
        </mxCell>
        <mxCell id="aP_Akgzm--8WJA6tpNV4-39" value="ID_COMPRA" style="ellipse;whiteSpace=wrap;html=1;fontStyle=0" parent="1" vertex="1">
          <mxGeometry x="460" y="230" width="90" height="40" as="geometry" />
        </mxCell>
        <mxCell id="aP_Akgzm--8WJA6tpNV4-41" value="ID_DISCO" style="ellipse;whiteSpace=wrap;html=1;fontStyle=0" parent="1" vertex="1">
          <mxGeometry x="460" y="280" width="90" height="40" as="geometry" />
        </mxCell>
        <mxCell id="aP_Akgzm--8WJA6tpNV4-44" value="ID_GENERO" style="ellipse;whiteSpace=wrap;html=1;fontStyle=4" parent="1" vertex="1">
          <mxGeometry x="10" y="320" width="90" height="40" as="geometry" />
        </mxCell>
        <mxCell id="aP_Akgzm--8WJA6tpNV4-45" value="NOMBRE" style="ellipse;whiteSpace=wrap;html=1;fontStyle=0" parent="1" vertex="1">
          <mxGeometry x="110" y="320" width="90" height="40" as="geometry" />
        </mxCell>
        <mxCell id="aP_Akgzm--8WJA6tpNV4-49" value="ID_GENERO" style="ellipse;whiteSpace=wrap;html=1;fontStyle=0" parent="1" vertex="1">
          <mxGeometry x="680" y="320" width="90" height="40" as="geometry" />
        </mxCell>
        <mxCell id="aP_Akgzm--8WJA6tpNV4-52" value="ID_DISCO" style="ellipse;whiteSpace=wrap;html=1;fontStyle=4" parent="1" vertex="1">
          <mxGeometry x="480" y="470" width="90" height="40" as="geometry" />
        </mxCell>
        <mxCell id="aP_Akgzm--8WJA6tpNV4-54" value="TITULO" style="ellipse;whiteSpace=wrap;html=1;fontStyle=0" parent="1" vertex="1">
          <mxGeometry x="550" y="500" width="90" height="40" as="geometry" />
        </mxCell>
        <mxCell id="aP_Akgzm--8WJA6tpNV4-56" value="ARTISTA" style="ellipse;whiteSpace=wrap;html=1;fontStyle=0" parent="1" vertex="1">
          <mxGeometry x="620" y="460" width="90" height="40" as="geometry" />
        </mxCell>
        <mxCell id="aP_Akgzm--8WJA6tpNV4-58" value="AÃO_LANZAMIENTO" style="ellipse;whiteSpace=wrap;html=1;fontStyle=0" parent="1" vertex="1">
          <mxGeometry x="670" y="420" width="130" height="40" as="geometry" />
        </mxCell>
        <mxCell id="aP_Akgzm--8WJA6tpNV4-60" value="PRECIO" style="ellipse;whiteSpace=wrap;html=1;fontStyle=0" parent="1" vertex="1">
          <mxGeometry x="690" y="375" width="90" height="40" as="geometry" />
        </mxCell>
        <mxCell id="aP_Akgzm--8WJA6tpNV4-63" value="TELEFONO" style="ellipse;shape=doubleEllipse;whiteSpace=wrap;html=1;" parent="1" vertex="1">
          <mxGeometry x="20" y="210" width="100" height="60" as="geometry" />
        </mxCell>
        <mxCell id="aP_Akgzm--8WJA6tpNV4-66" style="edgeStyle=orthogonalEdgeStyle;rounded=0;orthogonalLoop=1;jettySize=auto;html=1;exitX=0.5;exitY=1;exitDx=0;exitDy=0;entryX=0.375;entryY=0.05;entryDx=0;entryDy=0;entryPerimeter=0;endArrow=none;endFill=0;" parent="1" edge="1">
          <mxGeometry relative="1" as="geometry">
            <mxPoint x="190" y="179" as="sourcePoint" />
            <mxPoint x="185" y="221" as="targetPoint" />
            <Array as="points">
              <mxPoint x="190" y="201" />
              <mxPoint x="185" y="201" />
            </Array>
          </mxGeometry>
        </mxCell>
        <mxCell id="aP_Akgzm--8WJA6tpNV4-67" style="edgeStyle=orthogonalEdgeStyle;rounded=0;orthogonalLoop=1;jettySize=auto;html=1;exitX=0.25;exitY=0;exitDx=0;exitDy=0;entryX=0.833;entryY=1.025;entryDx=0;entryDy=0;entryPerimeter=0;endArrow=none;endFill=0;" parent="1" edge="1">
          <mxGeometry relative="1" as="geometry">
            <mxPoint x="160" y="119" as="sourcePoint" />
            <mxPoint x="95" y="90" as="targetPoint" />
            <Array as="points">
              <mxPoint x="160" y="110" />
              <mxPoint x="95" y="110" />
            </Array>
          </mxGeometry>
        </mxCell>
        <mxCell id="aP_Akgzm--8WJA6tpNV4-68" value="1:n" style="text;html=1;strokeColor=none;fillColor=none;align=center;verticalAlign=middle;whiteSpace=wrap;rounded=0;" parent="1" vertex="1">
          <mxGeometry x="390" y="100" width="60" height="30" as="geometry" />
        </mxCell>
        <mxCell id="aP_Akgzm--8WJA6tpNV4-69" value="m:n" style="text;html=1;strokeColor=none;fillColor=none;align=center;verticalAlign=middle;whiteSpace=wrap;rounded=0;" parent="1" vertex="1">
          <mxGeometry x="710" y="255" width="60" height="30" as="geometry" />
        </mxCell>
        <mxCell id="aP_Akgzm--8WJA6tpNV4-70" value="1:n" style="text;html=1;strokeColor=none;fillColor=none;align=center;verticalAlign=middle;whiteSpace=wrap;rounded=0;" parent="1" vertex="1">
          <mxGeometry x="310" y="350" width="60" height="30" as="geometry" />
        </mxCell>
      </root>
    </mxGraphModel>
  </diagram>
</mxfile>
